<?xml version="1.0" standalone="no"?><!DOCTYPE svg PUBLIC "-//W3C//DTD SVG 1.1//EN" "http://www.w3.org/Graphics/SVG/1.1/DTD/svg11.dtd"><svg t="1749568636655" class="icon" viewBox="0 0 1024 1024" version="1.1" xmlns="http://www.w3.org/2000/svg" p-id="7117" xmlns:xlink="http://www.w3.org/1999/xlink" width="200" height="200"><path d="M512 512m-500 0a500 500 0 1 0 1000 0 500 500 0 1 0-1000 0Z" fill="#037BFE" p-id="7118"></path><path d="M537.67 183.37a27 27 0 0 1 2.73 1.12l237.65 113a25.63 25.63 0 0 1 14.58 23.13v176.27c0 97.19-42.48 184.17-119.59 245L541.5 835.43a50.87 50.87 0 0 1-59 0L352 742.59c-78.13-61.53-120.61-148.52-120.61-245.7V320.66A25.63 25.63 0 0 1 246 297.53l237.56-113a24.37 24.37 0 0 1 2.75-1.12 80.35 80.35 0 0 1 51.36-0.04z m-21.28 91.07c-22.46 0-40.83 15.2-42.16 34.38l-0.08 2.24V444H341.71c-19.41 0-35.26 17.61-36.41 39.81l-0.07 2.58c0 23.41 16.33 42.4 36.48 42.4h132.45v133c0 20.22 18.91 36.62 42.24 36.62 22.46 0 40.83-15.21 42.16-34.39l0.07-2.24V528.75h132.45c19.41 0 35.28-17.59 36.43-39.8l0.07-2.58c0-23.41-16.35-42.38-36.5-42.38H558.63V311.05c0-20.22-18.91-36.61-42.23-36.61z" fill="#FFFFFF" p-id="7119"></path></svg>